<svg xmlns="http://www.w3.org/2000/svg" viewBox="0 0 512 512" role="img" aria-label="BB V.G.">
  <defs>
    <linearGradient id="bg" x1="0" y1="0" x2="1" y2="1"><stop stop-color="#17151d"/><stop offset="1" stop-color="#07070a"/></linearGradient>
    <linearGradient id="purple" x1="0" y1="0" x2="1" y2="1"><stop stop-color="#a16fe0"/><stop offset="1" stop-color="#4e2c76"/></linearGradient>
    <linearGradient id="graphite" x1="0" y1="0" x2="1" y2="1"><stop stop-color="#56535e"/><stop offset="1" stop-color="#18171d"/></linearGradient>
    <filter id="shadow" x="-30%" y="-30%" width="160%" height="160%"><feDropShadow dx="0" dy="14" stdDeviation="12" flood-color="#000" flood-opacity=".7"/></filter>
    <clipPath id="left"><rect x="0" y="0" width="256" height="512"/></clipPath>
    <clipPath id="right"><rect x="256" y="0" width="256" height="512"/></clipPath>
  </defs>
  <rect width="512" height="512" rx="112" fill="url(#bg)"/>
  <rect x="18" y="18" width="476" height="476" rx="96" fill="none" stroke="#3f2d50" stroke-width="8"/>
  <circle cx="256" cy="244" r="184" fill="#0b0b0f" stroke="#6e478e" stroke-width="9"/>
  <circle cx="256" cy="244" r="153" fill="#0d0d12" stroke="#28252f" stroke-width="5"/>
  <g filter="url(#shadow)">
    <text x="255" y="334" text-anchor="middle" font-family="Arial Black,Arial,sans-serif" font-size="254" font-weight="900" fill="url(#graphite)" clip-path="url(#left)">B</text>
    <text x="255" y="334" text-anchor="middle" font-family="Arial Black,Arial,sans-serif" font-size="254" font-weight="900" fill="url(#purple)" clip-path="url(#right)">B</text>
    <path d="M256 132l12 18-12 18-12-18z" fill="#08080b"/>
    <path d="M256 314l12 18-12 18-12-18z" fill="#08080b"/>
  </g>
  <path d="M158 404h196l24 26-24 32H158l-24-32z" fill="#111017" stroke="#4b355d" stroke-width="5"/>
  <text x="256" y="447" text-anchor="middle" font-family="Arial,sans-serif" font-size="38" font-weight="800" letter-spacing="6" fill="#8f5fc3">V.G.</text>
</svg>
